<?xml version="1.0" encoding="UTF-8"?>
<svg width="76px" height="68px" viewBox="0 0 76 68" version="1.1" xmlns="http://www.w3.org/2000/svg" xmlns:xlink="http://www.w3.org/1999/xlink">
    <!-- Generator: Sketch Beta 39 (31652) - http://www.bohemiancoding.com/sketch -->
    <title>logo small</title>
    <desc>Created with Sketch Beta.</desc>
    <defs>
        <path d="M26.784,36.18 C24.1439868,38.3640109 20.7600206,39.456 16.632,39.456 C13.8479861,39.456 10.956015,38.952005 7.956,37.944 C4.955985,36.935995 2.30401152,35.5200091 0,33.696 L3.888,27.432 C8.35202232,30.7920168 12.6719791,32.472 16.848,32.472 C18.6720091,32.472 20.1119947,32.0520042 21.168,31.212 C22.2240053,30.3719958 22.752,29.3040065 22.752,28.008 C22.752,26.0879904 20.2080254,24.3600077 15.12,22.824 C14.7359981,22.6799993 14.448001,22.5840002 14.256,22.536 C6.28796016,20.3759892 2.304,16.7760252 2.304,11.736 C2.304,8.18398224 3.6839862,5.34001068 6.444,3.204 C9.2040138,1.06798932 12.7919779,0 17.208,0 C21.6240221,0 25.7999803,1.29598704 29.736,3.888 L26.712,9.864 C23.5919844,7.79998968 20.2080182,6.768 16.56,6.768 C14.6399904,6.768 13.080006,7.11599652 11.88,7.812 C10.679994,8.50800348 10.08,9.55199304 10.08,10.944 C10.08,12.1920062 10.7039938,13.1039971 11.952,13.68 C12.8160043,14.1120022 14.0279922,14.5199981 15.588,14.904 C17.1480078,15.2880019 18.527994,15.6719981 19.728,16.056 C20.928006,16.4400019 22.0919944,16.8719976 23.22,17.352 C24.3480056,17.8320024 25.5599935,18.5039957 26.856,19.368 C29.448013,21.0960086 30.744,23.7839818 30.744,27.432 C30.744,31.0800182 29.4240132,33.9959891 26.784,36.18 L26.784,36.18 Z M69.584,5.328 C73.2320182,8.88001776 75.056,13.6079705 75.056,19.512 C75.056,25.4160295 73.2440181,30.2159815 69.62,33.912 C65.9959819,37.6080185 61.7720241,39.456 56.948,39.456 C52.1239759,39.456 47.7920192,37.3440211 43.952,33.12 L43.952,52.848 L35.888,52.848 L35.888,0.576 L43.952,0.576 L43.952,7.272 C47.1200158,2.42397576 51.2719743,0 56.408,0 C61.5440257,0 65.9359818,1.77598224 69.584,5.328 L69.584,5.328 Z M47.12,28.764 C49.328011,31.0920116 52.0159842,32.256 55.184,32.256 C58.3520158,32.256 61.1119882,31.1040115 63.464,28.8 C65.8160118,26.4959885 66.992,23.5080184 66.992,19.836 C66.992,16.1639816 65.8400115,13.1160121 63.536,10.692 C61.2319885,8.26798788 58.4720161,7.056 55.256,7.056 C52.0399839,7.056 49.328011,8.26798788 47.12,10.692 C44.911989,13.1160121 43.808,16.1519818 43.808,19.8 C43.808,23.4480182 44.911989,26.4359884 47.12,28.764 L47.12,28.764 Z" id="path-1"></path>
    </defs>
    <g id="logo-small" stroke="none" stroke-width="1" fill="none" fill-rule="evenodd">
        <g>
            <g id="Oval-1">
                <mask id="mask-2" fill="white">
                    <use xlink:href="#path-1"></use>
                </mask>
                <use id="Mask" fill="#646464" xlink:href="#path-1"></use>
                <circle fill-opacity="0.5" fill="#D8D8D8" style="mix-blend-mode: exclusion;" mask="url(#mask-2)" cx="39.5" cy="545.5" r="523.5"></circle>
            </g>
            <path d="M36.4788732,59.4788732 C37.4647937,58.4929528 38.6384908,58 40,58 C41.3615092,58 42.5352063,58.4929528 43.5211268,59.4788732 C44.5070472,60.4647937 45,61.6384908 45,63 C45,64.3615092 44.5070472,65.5352063 43.5211268,66.5211268 C42.5352063,67.5070472 41.3615092,68 40,68 C38.6384908,68 37.4647937,67.5070472 36.4788732,66.5211268 C35.4929528,65.5352063 35,64.3615092 35,63 C35,61.6384908 35.4929528,60.4647937 36.4788732,59.4788732 Z" id="blue-point" fill="#0770B1"></path>
        </g>
    </g>
</svg>