<?xml version="1.0" encoding="UTF-8"?>
<svg width="403px" height="141px" viewBox="0 0 403 141" version="1.1" xmlns="http://www.w3.org/2000/svg" xmlns:xlink="http://www.w3.org/1999/xlink">
    <!-- Generator: Sketch Beta 39 (31667) - http://www.bohemiancoding.com/sketch -->
    <title>logo esteso white</title>
    <desc>Created with Sketch Beta.</desc>
    <defs>
        <path d="M52.6,51.648 L52.6,1.32 L61.096,1.32 L61.096,43.584 L84.064,43.584 L84.064,51.648 L52.6,51.648 Z M105.192,45.024 C108.696018,45.024 111.587989,43.8600116 113.868,41.532 C116.148011,39.2039884 117.288,36.1920185 117.288,32.496 C117.288,28.7999815 116.148011,25.7880116 113.868,23.46 C111.587989,21.1319884 108.696018,19.968 105.192,19.968 C101.687982,19.968 98.7960114,21.1319884 96.516,23.46 C94.2359886,25.7880116 93.096,28.7999815 93.096,32.496 C93.096,36.1920185 94.2359886,39.2039884 96.516,41.532 C98.7960114,43.8600116 101.687982,45.024 105.192,45.024 L105.192,45.024 Z M105.192,52.224 C99.4319712,52.224 94.6320192,50.3160191 90.792,46.5 C86.9519808,42.6839809 85.032,38.0160276 85.032,32.496 C85.032,26.9759724 86.9519808,22.3080191 90.792,18.492 C94.6320192,14.6759809 99.4319712,12.768 105.192,12.768 C110.952029,12.768 115.751981,14.6759809 119.592,18.492 C123.432019,22.3080191 125.352,26.9759724 125.352,32.496 C125.352,38.0160276 123.432019,42.6839809 119.592,46.5 C115.751981,50.3160191 110.952029,52.224 105.192,52.224 L105.192,52.224 Z M156.52,9.456 C154.935992,10.464005 154.144,11.9879898 154.144,14.028 C154.144,16.0680102 154.935992,17.6279946 156.52,18.708 C158.104008,19.7880054 161.475974,20.9519938 166.636,22.2 C171.796026,23.4480062 175.683987,25.1999887 178.3,27.456 C180.916013,29.7120113 182.224,33.035978 182.224,37.428 C182.224,41.820022 180.568017,45.3839863 177.256,48.12 C173.943983,50.8560137 169.600027,52.224 164.224,52.224 C156.351961,52.224 149.36803,49.5120271 143.272,44.088 L148.6,37.68 C153.688025,42.0960221 158.967973,44.304 164.44,44.304 C167.176014,44.304 169.347992,43.7160059 170.956,42.54 C172.564008,41.3639941 173.368,39.8040097 173.368,37.86 C173.368,35.9159903 172.612008,34.4040054 171.1,33.324 C169.587992,32.2439946 166.984018,31.2600044 163.288,30.372 C159.591982,29.4839956 156.78401,28.6680037 154.864,27.924 C152.94399,27.1799963 151.240007,26.208006 149.752,25.008 C146.775985,22.7519887 145.288,19.2960233 145.288,14.64 C145.288,9.98397672 146.979983,6.3960126 150.364,3.876 C153.748017,1.3559874 157.935975,0.096 162.928,0.096 C166.144016,0.096 169.335984,0.62399472 172.504,1.68 C175.672016,2.73600528 178.407988,4.2239904 180.712,6.144 L176.176,12.552 C174.687993,11.2079933 172.672013,10.1040043 170.128,9.24 C167.583987,8.37599568 165.076012,7.944 162.604,7.944 C160.131988,7.944 158.104008,8.44799496 156.52,9.456 L156.52,9.456 Z M221.28,18.096 C224.928018,21.6480178 226.752,26.3759705 226.752,32.28 C226.752,38.1840295 224.940018,42.9839815 221.316,46.68 C217.691982,50.3760185 213.468024,52.224 208.644,52.224 C203.819976,52.224 199.488019,50.1120211 195.648,45.888 L195.648,65.616 L187.584,65.616 L187.584,13.344 L195.648,13.344 L195.648,20.04 C198.816016,15.1919758 202.967974,12.768 208.104,12.768 C213.240026,12.768 217.631982,14.5439822 221.28,18.096 L221.28,18.096 Z M198.816,41.532 C201.024011,43.8600116 203.711984,45.024 206.88,45.024 C210.048016,45.024 212.807988,43.8720115 215.16,41.568 C217.512012,39.2639885 218.688,36.2760184 218.688,32.604 C218.688,28.9319816 217.536012,25.8840121 215.232,23.46 C212.927988,21.0359879 210.168016,19.824 206.952,19.824 C203.735984,19.824 201.024011,21.0359879 198.816,23.46 C196.607989,25.8840121 195.504,28.9199818 195.504,32.568 C195.504,36.2160182 196.607989,39.2039884 198.816,41.532 L198.816,41.532 Z M263,51.648 L255.656,51.648 L255.656,46.536 C252.487984,50.328019 248.240027,52.224 242.912,52.224 C238.92798,52.224 235.628013,51.0960113 233.012,48.84 C230.395987,46.5839887 229.088,43.5720188 229.088,39.804 C229.088,36.0359812 230.479986,33.2160094 233.264,31.344 C236.048014,29.4719906 239.815976,28.536 244.568,28.536 L255.008,28.536 L255.008,27.096 C255.008,22.0079746 252.176028,19.464 246.512,19.464 C242.959982,19.464 239.264019,20.759987 235.424,23.352 L231.824,18.312 C236.480023,14.6159815 241.75997,12.768 247.664,12.768 C252.176023,12.768 255.859986,13.9079886 258.716,16.188 C261.572014,18.4680114 263,22.0559755 263,26.952 L263,51.648 Z M254.936,37.392 L254.936,34.152 L245.864,34.152 C240.055971,34.152 237.152,35.9759818 237.152,39.624 C237.152,41.4960094 237.871993,42.9239951 239.312,43.908 C240.752007,44.8920049 242.755987,45.384 245.324,45.384 C247.892013,45.384 250.13599,44.6640072 252.056,43.224 C253.97601,41.7839928 254.936,39.8400122 254.936,37.392 L254.936,37.392 Z M269.008,20.4 L269.008,13.488 L298.96,13.488 L298.96,20.76 L277.432,44.664 L300.112,44.664 L300.112,51.648 L267.568,51.648 L267.568,43.8 L288.52,20.4 L269.008,20.4 Z M313.248,51.648 L305.184,51.648 L305.184,13.344 L313.248,13.344 L313.248,51.648 Z M338.552,45.024 C342.056018,45.024 344.947989,43.8600116 347.228,41.532 C349.508011,39.2039884 350.648,36.1920185 350.648,32.496 C350.648,28.7999815 349.508011,25.7880116 347.228,23.46 C344.947989,21.1319884 342.056018,19.968 338.552,19.968 C335.047982,19.968 332.156011,21.1319884 329.876,23.46 C327.595989,25.7880116 326.456,28.7999815 326.456,32.496 C326.456,36.1920185 327.595989,39.2039884 329.876,41.532 C332.156011,43.8600116 335.047982,45.024 338.552,45.024 L338.552,45.024 Z M338.552,52.224 C332.791971,52.224 327.992019,50.3160191 324.152,46.5 C320.311981,42.6839809 318.392,38.0160276 318.392,32.496 C318.392,26.9759724 320.311981,22.3080191 324.152,18.492 C327.992019,14.6759809 332.791971,12.768 338.552,12.768 C344.312029,12.768 349.111981,14.6759809 352.952,18.492 C356.792019,22.3080191 358.712,26.9759724 358.712,32.496 C358.712,38.0160276 356.792019,42.6839809 352.952,46.5 C349.111981,50.3160191 344.312029,52.224 338.552,52.224 L338.552,52.224 Z M5.4,115.752 C1.799982,112.103982 0,107.30403 0,101.352 C0,95.3999702 1.84798152,90.6480178 5.544,87.096 C9.24001848,83.5439822 13.6439744,81.768 18.756,81.768 C23.8680256,81.768 27.9839844,83.9279784 31.104,88.248 L31.104,67.224 L39.168,67.224 L39.168,120.648 L31.104,120.648 L31.104,114.888 C28.1279851,119.112021 23.7840286,121.224 18.072,121.224 C13.2239758,121.224 9.000018,119.400018 5.4,115.752 L5.4,115.752 Z M11.592,110.64 C13.9440118,112.944012 16.7039842,114.096 19.872,114.096 C23.0400158,114.096 25.727989,112.932012 27.936,110.604 C30.144011,108.275988 31.248,105.288018 31.248,101.64 C31.248,97.9919818 30.144011,94.9440122 27.936,92.496 C25.727989,90.0479878 23.0160161,88.824 19.8,88.824 C16.5839839,88.824 13.8240115,90.0479878 11.52,92.496 C9.21598848,94.9440122 8.064,98.0039816 8.064,101.676 C8.064,105.348018 9.23998824,108.335988 11.592,110.64 L11.592,110.64 Z M82.472,105.024 L52.448,105.024 C52.640001,107.808014 53.9119882,110.051991 56.264,111.756 C58.6160118,113.460009 61.3039849,114.312 64.328,114.312 C69.128024,114.312 72.7759875,112.800015 75.272,109.776 L79.88,114.816 C75.7519794,119.088021 70.3760331,121.224 63.752,121.224 C58.3759731,121.224 53.8040188,119.436018 50.036,115.86 C46.2679812,112.283982 44.384,107.48403 44.384,101.46 C44.384,95.4359699 46.3039808,90.6480178 50.144,87.096 C53.9840192,83.5439822 58.507974,81.768 63.716,81.768 C68.924026,81.768 73.3519818,83.3399843 77,86.484 C80.6480182,89.6280157 82.472,93.9599724 82.472,99.48 L82.472,105.024 Z M52.448,98.688 L74.408,98.688 C74.408,95.4719839 73.4000101,93.0000086 71.384,91.272 C69.3679899,89.5439914 66.8840148,88.68 63.932,88.68 C60.9799852,88.68 58.3280118,89.579991 55.976,91.38 C53.6239882,93.180009 52.448,95.6159846 52.448,98.688 L52.448,98.688 Z M95.392,120.648 L87.328,120.648 L87.328,67.224 L95.392,67.224 L95.392,120.648 Z M111.12,120.648 L103.056,120.648 L103.056,67.224 L111.12,67.224 L111.12,120.648 Z M149.816,120.648 L142.472,120.648 L142.472,115.536 C139.303984,119.328019 135.056027,121.224 129.728,121.224 C125.74398,121.224 122.444013,120.096011 119.828,117.84 C117.211987,115.583989 115.904,112.572019 115.904,108.804 C115.904,105.035981 117.295986,102.216009 120.08,100.344 C122.864014,98.4719906 126.631976,97.536 131.384,97.536 L141.824,97.536 L141.824,96.096 C141.824,91.0079746 138.992028,88.464 133.328,88.464 C129.775982,88.464 126.080019,89.759987 122.24,92.352 L118.64,87.312 C123.296023,83.6159815 128.57597,81.768 134.48,81.768 C138.992023,81.768 142.675986,82.9079886 145.532,85.188 C148.388014,87.4680114 149.816,91.0559755 149.816,95.952 L149.816,120.648 Z M141.752,106.392 L141.752,103.152 L132.68,103.152 C126.871971,103.152 123.968,104.975982 123.968,108.624 C123.968,110.496009 124.687993,111.923995 126.128,112.908 C127.568007,113.892005 129.571987,114.384 132.14,114.384 C134.708013,114.384 136.95199,113.664007 138.872,112.224 C140.79201,110.783993 141.752,108.840012 141.752,106.392 L141.752,106.392 Z M207.912,74.712 C211.416018,77.6400146 213.168,82.1519695 213.168,88.248 C213.168,94.3440305 211.380018,98.8079858 207.804,101.64 C204.227982,104.472014 198.744037,105.888 191.352,105.888 L182.424,105.888 L182.424,120.648 L173.928,120.648 L173.928,70.32 L191.208,70.32 C198.840038,70.32 204.407982,71.7839854 207.912,74.712 L207.912,74.712 Z M201.9,95.484 C203.604009,93.683991 204.456,91.0440174 204.456,87.564 C204.456,84.0839826 203.376011,81.6240072 201.216,80.184 C199.055989,78.7439928 195.672023,78.024 191.064,78.024 L182.424,78.024 L182.424,98.184 L192.288,98.184 C196.992024,98.184 200.195991,97.284009 201.9,95.484 L201.9,95.484 Z M235.232,114.024 C238.736018,114.024 241.627989,112.860012 243.908,110.532 C246.188011,108.203988 247.328,105.192018 247.328,101.496 C247.328,97.7999815 246.188011,94.7880116 243.908,92.46 C241.627989,90.1319884 238.736018,88.968 235.232,88.968 C231.727982,88.968 228.836011,90.1319884 226.556,92.46 C224.275989,94.7880116 223.136,97.7999815 223.136,101.496 C223.136,105.192018 224.275989,108.203988 226.556,110.532 C228.836011,112.860012 231.727982,114.024 235.232,114.024 L235.232,114.024 Z M235.232,121.224 C229.471971,121.224 224.672019,119.316019 220.832,115.5 C216.991981,111.683981 215.072,107.016028 215.072,101.496 C215.072,95.9759724 216.991981,91.3080191 220.832,87.492 C224.672019,83.6759809 229.471971,81.768 235.232,81.768 C240.992029,81.768 245.791981,83.6759809 249.632,87.492 C253.472019,91.3080191 255.392,95.9759724 255.392,101.496 C255.392,107.016028 253.472019,111.683981 249.632,115.5 C245.791981,119.316019 240.992029,121.224 235.232,121.224 L235.232,121.224 Z M268.6,120.648 L260.536,120.648 L260.536,67.224 L268.6,67.224 L268.6,120.648 Z M284.328,120.648 L276.264,120.648 L276.264,82.344 L284.328,82.344 L284.328,120.648 Z M275.256,71.112 C275.256,69.719993 275.759995,68.520005 276.768,67.512 C277.776005,66.503995 278.975993,66 280.368,66 C281.760007,66 282.959995,66.503995 283.968,67.512 C284.976005,68.520005 285.48,69.719993 285.48,71.112 C285.48,72.504007 284.976005,73.703995 283.968,74.712 C282.959995,75.720005 281.760007,76.224 280.368,76.224 C278.975993,76.224 277.776005,75.720005 276.768,74.712 C275.759995,73.703995 275.256,72.504007 275.256,71.112 L275.256,71.112 Z M301.928,88.824 L301.928,108.264 C301.928,110.088009 302.407995,111.539995 303.368,112.62 C304.328005,113.700005 305.671991,114.24 307.4,114.24 C309.128009,114.24 310.783992,113.400008 312.368,111.72 L315.68,117.408 C312.847986,119.952013 309.716017,121.224 306.284,121.224 C302.851983,121.224 299.924012,120.036012 297.5,117.66 C295.075988,115.283988 293.864,112.08002 293.864,108.048 L293.864,88.824 L289.04,88.824 L289.04,82.344 L293.864,82.344 L293.864,70.32 L301.928,70.32 L301.928,82.344 L312.008,82.344 L312.008,88.824 L301.928,88.824 Z M326.152,120.648 L318.088,120.648 L318.088,82.344 L326.152,82.344 L326.152,120.648 Z M318.592,67.512 C319.600005,66.503995 320.799993,66 322.192,66 C323.584007,66 324.783995,66.503995 325.792,67.512 C326.800005,68.520005 327.304,69.719993 327.304,71.112 C327.304,72.504007 326.800005,73.703995 325.792,74.712 C324.783995,75.720005 323.584007,76.224 322.192,76.224 C320.799993,76.224 319.600005,75.720005 318.592,74.712 C317.583995,73.703995 317.08,72.504007 317.08,71.112 C317.08,69.719993 317.583995,68.520005 318.592,67.512 Z M350.808,121.224 C345.479973,121.224 340.896019,119.412018 337.056,115.788 C333.215981,112.163982 331.296,107.424029 331.296,101.568 C331.296,95.7119707 333.29998,90.9480184 337.308,87.276 C341.31602,83.6039816 346.199971,81.768 351.96,81.768 C357.720029,81.768 362.59198,83.7599801 366.576,87.744 L361.824,93.576 C358.511983,90.6959856 355.176017,89.256 351.816,89.256 C348.455983,89.256 345.540012,90.3719888 343.068,92.604 C340.595988,94.8360112 339.36,97.7159824 339.36,101.244 C339.36,104.772018 340.583988,107.759988 343.032,110.208 C345.480012,112.656012 348.491982,113.88 352.068,113.88 C355.644018,113.88 359.015984,112.248016 362.184,108.984 L366.936,114.168 C362.279977,118.872024 356.90403,121.224 350.808,121.224 L350.808,121.224 Z M402.32,120.648 L394.976,120.648 L394.976,115.536 C391.807984,119.328019 387.560027,121.224 382.232,121.224 C378.24798,121.224 374.948013,120.096011 372.332,117.84 C369.715987,115.583989 368.408,112.572019 368.408,108.804 C368.408,105.035981 369.799986,102.216009 372.584,100.344 C375.368014,98.4719906 379.135976,97.536 383.888,97.536 L394.328,97.536 L394.328,96.096 C394.328,91.0079746 391.496028,88.464 385.832,88.464 C382.279982,88.464 378.584019,89.759987 374.744,92.352 L371.144,87.312 C375.800023,83.6159815 381.07997,81.768 386.984,81.768 C391.496023,81.768 395.179986,82.9079886 398.036,85.188 C400.892014,87.4680114 402.32,91.0559755 402.32,95.952 L402.32,120.648 Z M394.256,106.392 L394.256,103.152 L385.184,103.152 C379.375971,103.152 376.472,104.975982 376.472,108.624 C376.472,110.496009 377.191993,111.923995 378.632,112.908 C380.072007,113.892005 382.075987,114.384 384.644,114.384 C387.212013,114.384 389.45599,113.664007 391.376,112.224 C393.29601,110.783993 394.256,108.840012 394.256,106.392 L394.256,106.392 Z" id="path-1"></path>
    </defs>
    <g id="logo-esteso-centered" stroke="none" stroke-width="1" fill="none" fill-rule="evenodd">
        <g id="logo-esteso-white">
            <g id="Oval-1" transform="translate(0.000000, 3.000000)">
                <mask id="mask-2" fill="white">
                    <use xlink:href="#path-1"></use>
                </mask>
                <use id="Mask" fill="#646464" xlink:href="#path-1"></use>
                <circle fill-opacity="0.5" fill="#D8D8D8" style="mix-blend-mode: exclusion;" mask="url(#mask-2)" cx="201.5" cy="615.5" r="523.5"></circle>
            </g>
            <g id="blue-selection" transform="translate(173.000000, 0.000000)" fill="#0770B1">
                <path d="M1.512,131.512 C2.52000504,130.503995 3.71999304,130 5.112,130 C6.50400696,130 7.70399496,130.503995 8.712,131.512 C9.72000504,132.520005 10.224,133.719993 10.224,135.112 C10.224,136.504007 9.72000504,137.703995 8.712,138.712 C7.70399496,139.720005 6.50400696,140.224 5.112,140.224 C3.71999304,140.224 2.52000504,139.720005 1.512,138.712 C0.50399496,137.703995 0,136.504007 0,135.112 C0,133.719993 0.50399496,132.520005 1.512,131.512 Z" id="blue-point"></path>
                <path d="M132.688,1.512 C133.696005,0.50399496 134.895993,0 136.288,0 C137.680007,0 138.879995,0.50399496 139.888,1.512 C140.896005,2.52000504 141.4,3.71999304 141.4,5.112 C141.4,6.50400696 140.896005,7.70399496 139.888,8.712 C138.879995,9.72000504 137.680007,10.224 136.288,10.224 C134.895993,10.224 133.696005,9.72000504 132.688,8.712 C131.679995,7.70399496 131.176,6.50400696 131.176,5.112 C131.176,3.71999304 131.679995,2.52000504 132.688,1.512 Z" id="blue-point"></path>
            </g>
        </g>
    </g>
</svg>